{"title":"Lunch Box 2013 HINDI MOVIE DVDRIP-XviD-GOPI SAHI=PDR=TEAM-TELLY","uid":9207070,"size":735936733,"categoryP":"video","categoryS":"movies","magnet":"?xt=urn:btih:907e0ff4464591dd35768323ac3e1e0653347793&amp;dn=Lunch+Box+2013+HINDI+MOVIE+DVDRIP-XviD-GOPI+SAHI%3DPDR%3DTEAM-TELLY&amp;tr=udp%3A%2F%2Ftracker.openbittorrent.com%3A80&amp;tr=udp%3A%2F%2Fopen.demonii.com%3A1337&amp;tr=udp%3A%2F%2Ftracker.coppersurfer.tk%3A6969&amp;tr=udp%3A%2F%2Fexodus.desync.com%3A6969","seeders":16,"leechers":0,"uploader":"jatt13","files":2,"time":1384714551,"description":"[img]http://imageshack.us/a/img5/2880/v2od.jpg[/img]\n[img]http://ia.media-imdb.com/images/M/MV5BMjM2ODkxMzA5NV5BMl5BanBnXkFtZTgwOTYwOTYxMDE@._V1_SY317_CR175,0,214,317_.jpg[/img]\n[url]http://www.imdb.com/title/tt2350496/[/url]\nVideo\nID                             : 0\nFormat                         : MPEG-4 Visual\nFormat profile                 : Advanced Simple@L5\nFormat settings, BVOP          : Yes\nFormat settings, QPel          : No\nFormat settings, GMC           : No warppoints\nFormat settings, Matrix        : Default (H.263)\nCodec ID                       : XVID\nCodec ID/Hint                  : XviD\nDuration                       : 1h 40mn\nBit rate                       : 889 Kbps\nWidth                          : 640 pixels\nHeight                         : 346 pixels\nDisplay aspect ratio           : 1.85:1\nFrame rate                     : 25.000 fps\nColor space                    : YUV\nChroma subsampling             : 4:2:0\nBit depth                      : 8 bits\nScan type                      : Progressive\nCompression mode               : Lossy\nBits/(Pixel*Frame)             : 0.161\nStream size                    : 640 MiB (91%)\nWriting library                : XviD 1.2.1 (UTC 2008-12-04)\n\nAudio\nID                             : 1\nFormat                         : MPEG Audio\nFormat version                 : Version 1\nFormat profile                 : Layer 3\nMode                           : Joint stereo\nMode extension                 : MS Stereo\nCodec ID                       : 55\nCodec ID/Hint                  : MP3\nDuration                       : 1h 40mn\nBit rate mode                  : Constant\nBit rate                       : 80.0 Kbps\nChannel count                  : 2 channels\nSampling rate                  : 32.0 KHz\nCompression mode               : Lossy\nStream size                    : 57.6 MiB (8%)\nAlignment                      : Aligned on interleaves\nInterleave, duration           : 160 ms (4.00 video frames)\nInterleave, preload duration   : 216 ms\nTitle                          : LB.dga PID 1011 DELAY 0ms\n[img]http://imageshack.us/a/img707/1698/wvt1.jpg[/img]\n[img]http://imageshack.us/a/img42/8278/oye8.jpg[/img]\n[img]http://imageshack.us/a/img690/3393/f68t.jpg[/img]\n[img]http://imageshack.us/a/img855/5936/vnas.jpg[/img]\n[img]http://imageshack.us/a/img41/4469/pi6d.jpg[/img]\n[img]http://imageshack.us/a/img856/5238/8zfy.jpg[/img]\n[img]http://imageshack.us/a/img7/9776/1tjm.jpg[/img]\n[img]http://imageshack.us/a/img42/7674/vrty.jpg[/img]","torrent":{"xt":"urn:btih:907e0ff4464591dd35768323ac3e1e0653347793","amp;dn":"Lunch+Box+2013+HINDI+MOVIE+DVDRIP-XviD-GOPI+SAHI%3DPDR%3DTEAM-TELLY","amp;tr":["udp%3A%2F%2Ftracker.openbittorrent.com%3A80","udp%3A%2F%2Fopen.demonii.com%3A1337","udp%3A%2F%2Ftracker.coppersurfer.tk%3A6969","udp%3A%2F%2Fexodus.desync.com%3A6969"],"infoHash":"907e0ff4464591dd35768323ac3e1e0653347793","infoHashBuffer":{"type":"Buffer","data":[144,126,15,244,70,69,145,221,53,118,131,35,172,62,30,6,83,52,119,147]},"announce":[],"urlList":[]}}